<svg width="160" height="161" viewBox="0 0 160 161" fill="none" xmlns="http://www.w3.org/2000/svg">
<path d="M117.711 36.1041C125.173 42.5059 130.886 50.6998 134.313 59.916C137.739 69.1323 138.766 79.0682 137.297 88.7904C135.828 98.5126 131.912 107.702 125.916 115.495C119.921 123.288 112.042 129.428 103.021 133.34C94.0002 137.251 84.1329 138.805 74.3463 137.856C64.5598 136.906 55.1753 133.484 47.0746 127.911C38.974 122.338 32.423 114.797 28.0373 105.997C23.6515 97.197 21.575 87.4264 22.0028 77.6032L32.3729 78.0548C32.0217 86.12 33.7266 94.1421 37.3274 101.367C40.9282 108.593 46.3068 114.784 52.9578 119.359C59.6087 123.935 67.3137 126.744 75.3488 127.524C83.3839 128.304 91.4853 127.028 98.8919 123.816C106.298 120.605 112.767 115.563 117.69 109.165C122.612 102.767 125.828 95.2222 127.034 87.2399C128.24 79.2577 127.396 71.0999 124.583 63.533C121.77 55.9662 117.08 49.2386 110.952 43.9826L117.711 36.1041Z" fill="#0DADA8"/>
<g clip-path="url(#clip0_58_513)">
<path d="M94.1865 63.4368C96.8117 42.6256 85.904 32.1212 81.8829 29.0075C81.4711 28.6886 80.9651 28.5156 80.4443 28.5156C79.9235 28.5156 79.4175 28.6886 79.0057 29.0075C74.9846 32.1095 64.0808 42.6256 66.7059 63.4368C66.7673 63.8978 66.7181 64.3668 66.5623 64.8051C66.4066 65.2433 66.1488 65.6383 65.8102 65.9572C63.1812 68.4195 57.1399 75.5504 61.4595 86.0548C61.5539 86.2783 61.7089 86.4709 61.907 86.6107C62.1051 86.7506 62.3385 86.8323 62.5806 86.8464C62.8227 86.8605 63.064 86.8066 63.277 86.6907C63.4901 86.5747 63.6664 86.4015 63.7861 86.1906C65.1626 83.7322 67.6637 79.8817 70.9093 77.6288C71.0501 77.5325 71.209 77.466 71.3764 77.4334C71.5438 77.4008 71.7161 77.4026 71.8828 77.4389C72.0494 77.4753 72.2069 77.5452 72.3455 77.6445C72.4842 77.7439 72.6011 77.8704 72.6891 78.0166C73.6662 79.6296 75.9385 82.4176 79.9906 82.4138H80.8786C84.9268 82.4138 87.203 79.6296 88.1763 78.0166C88.2642 77.8704 88.3811 77.7439 88.5198 77.6445C88.6584 77.5452 88.8159 77.4753 88.9826 77.4389C89.1492 77.4026 89.3215 77.4008 89.4889 77.4334C89.6563 77.466 89.8153 77.5325 89.9561 77.6288C93.1939 79.8817 95.7027 83.7322 97.0831 86.1906C97.2028 86.4015 97.3791 86.5747 97.5922 86.6907C97.8052 86.8066 98.0465 86.8605 98.2886 86.8464C98.5307 86.8323 98.7641 86.7506 98.9622 86.6107C99.1603 86.4709 99.3153 86.2783 99.4097 86.0548C103.725 75.5426 97.688 68.4117 95.059 65.9494C94.7273 65.628 94.4756 65.2332 94.324 64.7968C94.1725 64.3604 94.1254 63.8946 94.1865 63.4368V63.4368ZM80.5451 51.5441C79.7168 51.5441 78.9072 51.2985 78.2185 50.8383C77.5298 50.3782 76.993 49.7241 76.6761 48.9589C76.3591 48.1937 76.2762 47.3517 76.4378 46.5393C76.5994 45.7269 76.9982 44.9807 77.5839 44.3951C78.1696 43.8094 78.9158 43.4105 79.7281 43.249C80.5405 43.0874 81.3825 43.1703 82.1477 43.4873C82.913 43.8042 83.567 44.341 84.0272 45.0297C84.4873 45.7184 84.7329 46.528 84.7329 47.3563C84.7329 48.467 84.2917 49.5322 83.5064 50.3175C82.721 51.1029 81.6558 51.5441 80.5451 51.5441V51.5441Z" fill="white"/>
<path d="M81.9099 93.5799C83.9379 92.2692 87.3696 89.3416 85.9659 85.2003C85.9485 85.1531 85.9481 85.1012 85.9647 85.0536C85.9813 85.0061 86.014 84.9658 86.0571 84.9397C86.1002 84.9135 86.151 84.9032 86.2008 84.9105C86.2507 84.9177 86.2965 84.942 86.3304 84.9793C88.0947 86.9181 91.5807 92.657 81.716 101.405C81.3935 101.686 80.9803 101.84 80.5527 101.84C80.1252 101.84 79.712 101.686 79.3895 101.405C69.5248 92.657 73.0108 86.9065 74.7751 84.9793C74.809 84.942 74.8548 84.9177 74.9046 84.9105C74.9545 84.9032 75.0053 84.9135 75.0484 84.9397C75.0915 84.9658 75.1241 85.0061 75.1408 85.0536C75.1574 85.1012 75.157 85.1531 75.1396 85.2003C73.7359 89.3416 77.1676 92.2692 79.1956 93.5799C79.6002 93.8407 80.0714 93.9794 80.5527 93.9794C81.0341 93.9794 81.5053 93.8407 81.9099 93.5799V93.5799Z" fill="white"/>
</g>
<defs>
<clipPath id="clip0_58_513">
<rect width="40.998" height="73.3333" fill="white" transform="translate(59.9473 28.5137)"/>
</clipPath>
</defs>
</svg>
