<svg width="80" height="80" viewBox="0 0 80 80" fill="none" xmlns="http://www.w3.org/2000/svg">
<path d="M29.2987 51.0952L32.4476 54.0137C32.86 54.3964 33.3919 54.6248 33.9534 54.6604C34.5148 54.6959 35.0713 54.5363 35.5286 54.2086L38.6184 51.9902C39.6807 51.2291 40.9709 50.8534 42.2757 50.9254C43.5805 50.9974 44.8216 51.5127 45.7936 52.386L56.7883 62.27C57.752 63.137 58.3934 64.305 58.608 65.5834C58.8226 66.8618 58.5977 68.1752 57.9699 69.3093L57.6213 69.9385C56.5957 71.7921 55.0755 73.3245 53.2302 74.365C51.385 75.4055 49.287 75.9132 47.1702 75.8316C38.2172 75.4873 29.7337 71.7374 23.4528 65.348L23.1072 64.9965C16.5021 58.2733 10.6326 48.1294 8.09515 39.0519L7.96222 38.5763C5.55119 29.9476 6.52756 20.7238 10.6917 12.7911C11.6752 10.9152 13.1605 9.34932 14.9818 8.26808C16.8032 7.18684 18.8891 6.63274 21.0069 6.66756H21.7277C23.0241 6.68888 24.275 7.14874 25.2766 7.97218C26.2781 8.79562 26.9712 9.93406 27.2427 11.2019L30.3326 25.6763C30.606 26.9539 30.4347 28.2867 29.8469 29.4536C29.2592 30.6205 28.2903 31.5515 27.1009 32.0923L23.6389 33.6668C23.1268 33.8997 22.7109 34.3025 22.4616 34.8069C22.2124 35.3113 22.1451 35.8863 22.2712 36.4346L23.2342 40.6175C23.9934 43.9229 26.8085 48.7852 29.2987 51.0952Z" fill="#003249"/>
<path d="M48.5606 44.1386C48.4302 43.9233 48.357 43.6783 48.3479 43.4267C48.0171 34.9902 41.0398 31.3155 40.963 31.2919C40.7844 31.2071 40.6247 31.0874 40.4932 30.9399C40.3618 30.7923 40.2613 30.6198 40.1977 30.4327C40.1341 30.2456 40.1087 30.0476 40.123 29.8505C40.1373 29.6534 40.1911 29.4611 40.281 29.2851C40.371 29.1092 40.4954 28.953 40.6468 28.826C40.7982 28.699 40.9735 28.6036 41.1625 28.5456C41.3514 28.4876 41.55 28.468 41.7467 28.4882C41.9433 28.5083 42.1338 28.5677 42.307 28.6628C42.6556 28.843 50.8972 33.1676 51.293 43.3115C51.3065 43.6388 51.2108 43.9613 51.0209 44.2282C50.8311 44.4952 50.5579 44.6914 50.2443 44.7862C49.9308 44.8809 49.5946 44.8687 49.2887 44.7515C48.9829 44.6342 48.7247 44.4187 48.5547 44.1386H48.5606Z" fill="#003249"/>
<path d="M57.5006 45.4686C57.3689 45.2538 57.2956 45.0084 57.2879 44.7567C57.0972 38.5269 54.649 32.5787 50.3992 28.0195C48.5157 25.9209 46.3088 24.1368 43.8621 22.7349C43.5135 22.5562 43.2501 22.2465 43.1299 21.8736C43.0096 21.5008 43.0425 21.0955 43.2211 20.7469C43.3997 20.3982 43.7095 20.1348 44.0823 20.0146C44.4552 19.8944 44.8605 19.9272 45.2091 20.1059C45.7999 20.4013 59.5742 27.6385 60.2389 44.6444C60.2516 44.9715 60.1554 45.2934 59.9653 45.5598C59.7752 45.8263 59.5021 46.022 59.1887 46.1163C58.8753 46.2106 58.5395 46.1982 58.2339 46.081C57.9284 45.9637 57.6704 45.7483 57.5006 45.4686Z" fill="#003249"/>
<path d="M67.2625 45.9118C67.1287 45.6978 67.0543 45.4521 67.0469 45.1999C66.1991 23.438 48.1061 13.9469 47.9259 13.8524C47.7473 13.7677 47.5876 13.648 47.4561 13.5004C47.3247 13.3528 47.2242 13.1804 47.1606 12.9932C47.097 12.8061 47.0716 12.6081 47.0859 12.411C47.1002 12.2139 47.154 12.0217 47.2439 11.8457C47.3339 11.6697 47.4583 11.5136 47.6097 11.3865C47.7611 11.2595 47.9364 11.1641 48.1254 11.1061C48.3143 11.0481 48.5129 11.0286 48.7095 11.0487C48.9061 11.0688 49.0967 11.1282 49.2699 11.2234C49.4738 11.3268 54.3212 13.8376 59.3134 19.2611C65.8618 26.3069 69.6546 35.4748 69.9979 45.0876C70.0095 45.4137 69.9127 45.7345 69.7228 45.9998C69.5328 46.2651 69.2604 46.4601 68.9479 46.5542C68.6355 46.6483 68.3007 46.6364 67.9958 46.5201C67.6909 46.4039 67.433 46.19 67.2625 45.9118Z" fill="#003249"/>
</svg>
