<svg width="163" height="163" viewBox="0 0 163 163" fill="none" xmlns="http://www.w3.org/2000/svg">
<g clip-path="url(#clip0_58_518)">
<path d="M88.4202 90.7617H74.6272C74.4313 90.7617 74.2435 90.8395 74.105 90.978C73.9665 91.1165 73.8887 91.3044 73.8887 91.5003V102.12C73.888 102.681 74.0007 103.236 74.2199 103.752C74.4391 104.268 74.7603 104.735 75.1643 105.124L77.7507 107.626C78.3349 108.188 79.1145 108.502 79.9255 108.501H83.1366C83.9475 108.502 84.7271 108.188 85.3113 107.626L87.8977 105.124C88.2985 104.733 88.6167 104.266 88.8334 103.75C89.05 103.234 89.1607 102.68 89.1588 102.12V91.5003C89.1588 91.4033 89.1397 91.3072 89.1026 91.2176C89.0655 91.128 89.0111 91.0466 88.9425 90.978C88.8739 90.9095 88.7925 90.8551 88.7029 90.8179C88.6133 90.7808 88.5172 90.7617 88.4202 90.7617ZM87.7021 103.142H75.3483V102.719H87.7021V103.142ZM87.7021 95.4032H75.3483V94.5537H87.7021V95.4032ZM87.7021 93.7188H75.3483V92.8694H87.7021V93.7188Z" fill="white"/>
<path d="M100.044 53.1287C94.3162 41.2974 81.5215 41.6535 81.5215 41.6535C81.5215 41.6535 68.7268 41.2974 63.0023 53.1287C59.368 60.6397 60.4422 69.584 65.542 76.1901L72.2181 84.8279C73.118 85.9908 73.6787 87.38 73.8382 88.8417C73.8571 89.0413 73.9493 89.2267 74.0971 89.3621C74.2449 89.4975 74.4377 89.5731 74.6381 89.5744H88.4078C88.6082 89.5731 88.801 89.4975 88.9488 89.3621C89.0966 89.2267 89.1888 89.0413 89.2076 88.8417C89.366 87.3802 89.9258 85.991 90.8248 84.8279L97.501 76.1901C102.604 69.584 103.678 60.6397 100.044 53.1287ZM65.9361 61.8541C66.9519 49.7191 76.4451 48.0669 76.737 48.0202C68.3998 52.2384 65.9361 61.8541 65.9361 61.8541Z" fill="white"/>
<path d="M82.6739 27.793C82.6739 27.1997 82.1929 26.7188 81.5996 26.7188C81.0063 26.7188 80.5254 27.1997 80.5254 27.793V36.8424C80.5254 37.4357 81.0063 37.9166 81.5996 37.9166C82.1929 37.9166 82.6739 37.4357 82.6739 36.8424V27.793Z" fill="white"/>
<path d="M116.459 63.879C117.052 63.879 117.533 63.398 117.533 62.8047C117.533 62.2114 117.052 61.7305 116.459 61.7305H107.41C106.816 61.7305 106.335 62.2114 106.335 62.8047C106.335 63.398 106.816 63.879 107.41 63.879H116.459Z" fill="white"/>
<path d="M46.5879 61.58C45.9946 61.58 45.5137 62.061 45.5137 62.6543C45.5137 63.2476 45.9946 63.7285 46.5879 63.7285H55.6373C56.2306 63.7285 56.7116 63.2476 56.7116 62.6543C56.7116 62.061 56.2306 61.58 55.6373 61.58H46.5879Z" fill="white"/>
<path d="M107.037 38.8394C107.456 38.4199 107.456 37.7397 107.037 37.3202C106.617 36.9006 105.937 36.9006 105.518 37.3202L99.1189 43.719C98.6993 44.1386 98.6993 44.8187 99.1189 45.2383C99.5384 45.6578 100.219 45.6578 100.638 45.2383L107.037 38.8394Z" fill="white"/>
<path d="M57.6343 37.2111C57.2148 36.7916 56.5346 36.7916 56.1151 37.2111C55.6956 37.6306 55.6956 38.3108 56.1151 38.7303L62.514 45.1292C62.9335 45.5487 63.6137 45.5487 64.0332 45.1292C64.4527 44.7097 64.4527 44.0295 64.0332 43.61L57.6343 37.2111Z" fill="white"/>
<path d="M95.4299 30.6575C95.6478 30.1057 95.3771 29.4817 94.8253 29.2637C94.2735 29.0458 93.6495 29.3165 93.4316 29.8683L90.1076 38.2851C89.8897 38.8369 90.1604 39.4609 90.7122 39.6789C91.264 39.8968 91.888 39.6261 92.1059 39.0743L95.4299 30.6575Z" fill="white"/>
<path d="M113.596 76.635C114.148 76.8529 114.772 76.5822 114.99 76.0304C115.208 75.4786 114.937 74.8546 114.386 74.6367L105.969 71.3127C105.417 71.0948 104.793 71.3654 104.575 71.9173C104.357 72.4691 104.628 73.0931 105.18 73.311L113.596 76.635Z" fill="white"/>
<path d="M49.4504 48.8221C48.8986 48.6041 48.2746 48.8748 48.0567 49.4266C47.8388 49.9784 48.1094 50.6024 48.6613 50.8204L57.0781 54.1443C57.6299 54.3623 58.2539 54.0916 58.4718 53.5398C58.6898 52.9879 58.4191 52.3639 57.8673 52.146L49.4504 48.8221Z" fill="white"/>
<path d="M114.034 49.881C114.578 49.6449 114.828 49.0122 114.592 48.4679C114.355 47.9237 113.723 47.6738 113.179 47.9099L104.877 51.5111C104.332 51.7472 104.082 52.3798 104.319 52.9241C104.555 53.4684 105.187 53.7183 105.732 53.4822L114.034 49.881Z" fill="white"/>
<path d="M49.0153 75.5741C48.471 75.8102 48.2212 76.4428 48.4573 76.9871C48.6934 77.5314 49.326 77.7813 49.8703 77.5452L58.1723 73.944C58.7166 73.7079 58.9664 73.0752 58.7303 72.5309C58.4942 71.9866 57.8616 71.7368 57.3173 71.9729L49.0153 75.5741Z" fill="white"/>
<path d="M68.6779 30.2184C68.4418 29.6741 67.8091 29.4243 67.2648 29.6604C66.7205 29.8965 66.4707 30.5291 66.7068 31.0734L70.308 39.3754C70.5441 39.9197 71.1767 40.1695 71.721 39.9334C72.2653 39.6973 72.5152 39.0647 72.2791 38.5204L68.6779 30.2184Z" fill="white"/>
</g>
<path d="M127.741 115.637C119.543 126.711 107.671 134.504 94.2512 137.622C80.8311 140.74 66.7394 138.978 54.4995 132.653C42.2596 126.329 32.6709 115.853 27.4505 103.103C22.2301 90.3528 21.719 76.1607 26.0086 63.068L35.8726 66.2998C32.3507 77.0493 32.7703 88.7016 37.0564 99.17C41.3426 109.638 49.2152 118.239 59.2646 123.432C69.314 128.625 80.8838 130.071 91.9022 127.511C102.921 124.951 112.668 118.553 119.399 109.461L127.741 115.637Z" fill="#0DADA8"/>
<defs>
<clipPath id="clip0_58_518">
<rect width="72.0186" height="81.7949" fill="white" transform="translate(45.5137 26.7188)"/>
</clipPath>
</defs>
</svg>
