<svg width="80" height="80" viewBox="0 0 80 80" fill="none" xmlns="http://www.w3.org/2000/svg">
<path d="M53.4502 7.27572C49.4381 4.70245 44.7664 3.33398 39.9938 3.33398C35.2212 3.33398 30.5495 4.70245 26.5374 7.27572C20.4259 11.2113 14.9897 18.4377 17.1482 31.6533C17.9999 36.6937 19.7769 41.5347 22.3901 45.9342L37.7182 72.0279C37.9512 72.4253 38.2848 72.7551 38.6857 72.9842C39.0866 73.2134 39.5408 73.334 40.0031 73.334C40.4653 73.334 40.9195 73.2134 41.3204 72.9842C41.7213 72.7551 42.0549 72.4253 42.2879 72.0279L57.616 45.9342C60.2293 41.5348 62.0063 36.6937 62.8579 31.6533C64.9979 18.4377 59.5586 11.2113 53.4502 7.27572ZM39.9938 35.1499C37.9416 35.1499 35.9355 34.544 34.2292 33.4089C32.5229 32.2739 31.193 30.6606 30.4077 28.773C29.6223 26.8854 29.4169 24.8084 29.8172 22.8046C30.2176 20.8008 31.2058 18.9601 32.6569 17.5154C34.108 16.0708 35.9568 15.0869 37.9696 14.6883C39.9823 14.2897 42.0686 14.4943 43.9645 15.2762C45.8605 16.058 47.481 17.382 48.6211 19.0808C49.7612 20.7796 50.3698 22.7768 50.3698 24.8199C50.369 27.5593 49.2755 30.1863 47.3298 32.1234C45.3841 34.0605 42.7454 35.1491 39.9938 35.1499Z" fill="#003249"/>
</svg>
