<svg width="24" height="24" viewBox="0 0 24 24" fill="none" xmlns="http://www.w3.org/2000/svg">
<path fill-rule="evenodd" clip-rule="evenodd" d="M5 6C5 5.44772 5.44772 5 6 5L20 5C20.5523 5 21 5.44772 21 6C21 6.55228 20.5523 7 20 7L6 7C5.44772 7 5 6.55228 5 6Z" fill="#003249"/>
<path fill-rule="evenodd" clip-rule="evenodd" d="M9 18C9 17.4477 9.44772 17 10 17H20C20.5523 17 21 17.4477 21 18C21 18.5523 20.5523 19 20 19H10C9.44772 19 9 18.5523 9 18Z" fill="#003249"/>
<path fill-rule="evenodd" clip-rule="evenodd" d="M1 12C1 11.4477 1.44772 11 2 11L20 11C20.5523 11 21 11.4477 21 12C21 12.5523 20.5523 13 20 13L2 13C1.44772 13 1 12.5523 1 12Z" fill="#003249"/>
</svg>
