<svg width="80" height="80" viewBox="0 0 80 80" fill="none" xmlns="http://www.w3.org/2000/svg">
<path d="M77.3102 20.0462V58.8851C77.3095 60.7541 76.5668 62.5463 75.2452 63.8678C73.9237 65.1894 72.1315 65.9321 70.2625 65.9327H10.3816C8.51267 65.9321 6.72047 65.1894 5.39892 63.8678C4.07738 62.5463 3.33465 60.7541 3.33398 58.8851V20.0462C3.33398 19.8594 3.38333 19.6759 3.47705 19.5144C3.57077 19.3528 3.70552 19.2189 3.86766 19.1261C4.0298 19.0334 4.21356 18.9852 4.40034 18.9863C4.58711 18.9875 4.77026 19.038 4.93124 19.1327L38.4712 38.8146C39.0328 39.1442 39.6722 39.318 40.3233 39.318C40.9745 39.318 41.6139 39.1442 42.1755 38.8146L75.7129 19.1327C75.8739 19.038 76.057 18.9875 76.2438 18.9863C76.4306 18.9852 76.6143 19.0334 76.7765 19.1261C76.9386 19.2189 77.0734 19.3528 77.1671 19.5144C77.2608 19.6759 77.3102 19.8594 77.3102 20.0462Z" fill="#003249"/>
<path d="M74.4541 16.6143L41.9739 35.5897C41.473 35.8833 40.903 36.0381 40.3224 36.0381C39.7418 36.0381 39.1717 35.8833 38.6709 35.5897L6.19068 16.6143C5.86102 16.4162 5.605 16.116 5.46152 15.7592C5.31804 15.4024 5.29493 15.0085 5.39571 14.6373C5.49649 14.2662 5.71565 13.9381 6.01989 13.7028C6.32414 13.4676 6.69685 13.3381 7.08141 13.334H73.5633C73.9479 13.3381 74.3206 13.4676 74.6248 13.7028C74.9291 13.9381 75.1483 14.2662 75.249 14.6373C75.3498 15.0085 75.3267 15.4024 75.1832 15.7592C75.0397 16.116 74.7837 16.4162 74.4541 16.6143Z" fill="#003249"/>
</svg>
