<svg width="163" height="163" viewBox="0 0 163 163" fill="none" xmlns="http://www.w3.org/2000/svg">
<g clip-path="url(#clip0_58_522)">
<path d="M114.822 51.4188C114.672 50.6302 114.248 49.9199 113.625 49.4132C113.002 48.9066 112.221 48.636 111.418 48.6493H107.117C106.733 45.149 106.24 42.918 106.24 42.918H65.1707C65.1707 42.918 64.6783 45.149 64.2898 48.6493H59.9894C59.1866 48.636 58.405 48.9066 57.7822 49.4132C57.1594 49.9199 56.7355 50.6302 56.5852 51.4188C55.6389 56.8502 53.8926 74.4981 69.475 79.9025C72.293 84.2231 76.4987 87.4548 81.3993 89.065H81.3647C81.3647 89.065 81.907 97.1197 79.2491 102.213C78.7682 103.12 78.0479 103.879 77.1663 104.405C76.2847 104.932 75.2756 105.208 74.2485 105.201H72.7561C72.312 105.201 71.886 105.377 71.5716 105.691C71.2572 106.005 71.08 106.43 71.079 106.875V110.386C71.08 110.957 71.3074 111.504 71.7113 111.907C72.1151 112.31 72.6624 112.537 73.2331 112.537H98.1318C98.7021 112.537 99.249 112.31 99.6522 111.907C100.055 111.504 100.282 110.957 100.282 110.386V106.875C100.282 106.431 100.106 106.005 99.7919 105.691C99.4781 105.378 99.0525 105.201 98.6088 105.201H97.1124C96.0854 105.208 95.0763 104.932 94.1947 104.405C93.3131 103.879 92.5927 103.12 92.1119 102.213C89.454 97.1197 89.9925 89.065 89.9925 89.065H89.9579C94.859 87.4538 99.0648 84.2207 101.882 79.8987C117.522 74.4789 115.768 56.8502 114.822 51.4188ZM59.1816 65.6665C57.7315 60.2544 58.3469 54.6653 58.8431 51.8189C58.9041 51.5676 59.0499 51.345 59.2559 51.1887C59.4619 51.0324 59.7156 50.952 59.974 50.9611H64.0513C63.482 57.9464 63.5974 68.2321 67.5863 76.583C63.3667 74.3481 60.5471 70.6977 59.1816 65.6665ZM68.6172 46.6222H71.9329C68.1787 77.1638 78.999 84.8915 79.8761 85.4723C64.0321 76.5214 68.6326 46.6222 68.6326 46.6222H68.6172ZM97.9856 59.7005C97.7741 59.7337 97.5786 59.8331 97.4273 59.9845C97.2759 60.1359 97.1764 60.3314 97.1432 60.5429L96.1085 67.0012C96.1085 67.039 96.0935 67.0752 96.0668 67.1018C96.0401 67.1285 96.0039 67.1435 95.9662 67.1435C95.9284 67.1435 95.8922 67.1285 95.8655 67.1018C95.8388 67.0752 95.8239 67.039 95.8239 67.0012L94.7853 60.5467C94.7515 60.3355 94.6519 60.1403 94.5006 59.989C94.3493 59.8377 94.1541 59.7381 93.9429 59.7043L87.4884 58.6657C87.4542 58.6601 87.423 58.6425 87.4006 58.6161C87.3782 58.5897 87.3658 58.5562 87.3658 58.5215C87.3658 58.4868 87.3782 58.4533 87.4006 58.4269C87.423 58.4004 87.4542 58.3829 87.4884 58.3772L93.9429 57.3387C94.1541 57.3049 94.3493 57.2053 94.5006 57.054C94.6519 56.9027 94.7515 56.7075 94.7853 56.4963L95.8239 50.0418C95.8239 50.004 95.8388 49.9678 95.8655 49.9411C95.8922 49.9145 95.9284 49.8995 95.9662 49.8995C96.0039 49.8995 96.0401 49.9145 96.0668 49.9411C96.0935 49.9678 96.1085 50.004 96.1085 50.0418L97.1509 56.4963C97.1841 56.7078 97.2836 56.9033 97.4349 57.0546C97.5863 57.206 97.7818 57.3055 97.9933 57.3387L104.448 58.3772C104.482 58.3829 104.513 58.4004 104.536 58.4269C104.558 58.4533 104.57 58.4868 104.57 58.5215C104.57 58.5562 104.558 58.5897 104.536 58.6161C104.513 58.6425 104.482 58.6601 104.448 58.6657L97.9856 59.7005ZM112.195 65.6626C110.86 70.7016 108.033 74.3481 103.802 76.583C107.798 68.2321 107.91 57.9464 107.34 50.9573H111.418C111.676 50.9482 111.93 51.0286 112.136 51.1849C112.342 51.3411 112.488 51.5637 112.549 51.815C113.033 54.6653 113.66 60.2505 112.21 65.6665L112.195 65.6626Z" fill="white"/>
<path d="M118.234 36.7332L112.995 37.5756C112.824 37.603 112.665 37.684 112.543 37.807C112.421 37.9301 112.34 38.0888 112.314 38.2603L111.468 43.4955C111.468 43.5261 111.456 43.5554 111.434 43.5771C111.412 43.5987 111.383 43.6109 111.352 43.6109C111.322 43.6109 111.292 43.5987 111.271 43.5771C111.249 43.5554 111.237 43.5261 111.237 43.4955L110.395 38.2603C110.366 38.089 110.285 37.9307 110.162 37.8079C110.04 37.6851 109.881 37.6039 109.71 37.5756L104.471 36.7332C104.443 36.7283 104.419 36.7138 104.401 36.6923C104.383 36.6709 104.373 36.6438 104.373 36.6159C104.373 36.588 104.383 36.561 104.401 36.5395C104.419 36.5181 104.443 36.5036 104.471 36.4986L109.71 35.6562C109.881 35.6274 110.039 35.546 110.162 35.4233C110.284 35.3006 110.366 35.1427 110.395 34.9715L111.237 29.7287C111.237 29.6981 111.249 29.6687 111.271 29.6471C111.292 29.6254 111.322 29.6133 111.352 29.6133C111.383 29.6133 111.412 29.6254 111.434 29.6471C111.456 29.6687 111.468 29.6981 111.468 29.7287L112.314 34.9638C112.341 35.1351 112.421 35.2935 112.544 35.4165C112.666 35.5394 112.824 35.6206 112.995 35.6485L118.234 36.4909C118.25 36.4909 118.266 36.494 118.28 36.5001C118.295 36.5062 118.308 36.5151 118.32 36.5264C118.331 36.5376 118.34 36.551 118.346 36.5657C118.352 36.5804 118.355 36.5962 118.355 36.6121C118.355 36.628 118.352 36.6437 118.346 36.6584C118.34 36.6731 118.331 36.6865 118.32 36.6978C118.308 36.709 118.295 36.7179 118.28 36.724C118.266 36.7301 118.25 36.7332 118.234 36.7332Z" fill="white"/>
</g>
<path d="M134.929 102.788C131.594 111.071 126.392 118.472 119.728 124.414C113.065 130.357 105.119 134.681 96.5099 137.049C87.9011 139.417 78.8618 139.766 70.0961 138.068C61.3304 136.37 53.0751 132.671 45.9732 127.26C38.8713 121.848 33.1147 114.87 29.1518 106.869C25.1888 98.8685 23.1266 90.0606 23.1257 81.132C23.1249 72.2034 25.1854 63.3951 29.1467 55.3934C33.1081 47.3917 38.8634 40.4126 45.9642 34.9997L52.2568 43.2547C46.4268 47.6989 41.7015 53.429 38.4491 59.9987C35.1967 66.5684 33.5049 73.8003 33.5056 81.131C33.5064 88.4617 35.1995 95.6933 38.4532 102.262C41.7069 108.831 46.4333 114.561 52.2642 119.004C58.0951 123.447 64.873 126.483 72.07 127.877C79.2669 129.272 86.6886 128.985 93.7567 127.041C100.825 125.096 107.349 121.546 112.82 116.667C118.291 111.788 122.562 105.712 125.3 98.9117L134.929 102.788Z" fill="#0DADA8"/>
<defs>
<clipPath id="clip0_58_522">
<rect width="62.3333" height="82.9008" fill="white" transform="translate(56 29.6367)"/>
</clipPath>
</defs>
</svg>
